# xmcd CD database file
#
# Track frame offsets:
#	150
#	58320
#	98692
#	229297
#
# Disc length: 3929 seconds
#
# Revision: 1
# Processed by: cddbd v1.4PL0 Copyright (c) Steve Scherf et al.
# Submitted via: CDex 1.50
#
DISCID=300f5704
DTITLE=FRANZ DANNERBAUER - Suspense
DYEAR=1993
DGENRE=Jazz
TTITLE0=Suspense
TTITLE1=Gedankenspiele
TTITLE2=Memory of Charles Mingus
TTITLE3=For Charlotte
EXTD=YEAR: 1993
EXTT0=
EXTT1=
EXTT2=
EXTT3=
PLAYORDER=
